# xmcd
#
# Track frame offsets: 
#        150
#        25323
#        49388
#        102250
#        128333
#        156398
#        178113
#        210160
#        224825
#        250440
#
# Disc length: 3709 seconds
#
# Revision: 1
# Processed by: cddbd v1.5.2PL0 Copyright (c) Steve Scherf et al.
# Submitted via: ExactAudioCopy v0.99pb4
#
DISCID=910e7b0a
DTITLE=Johnny Winter - Walking By Myself
DYEAR=1900
DGENRE=Rock
TTITLE0=E.Z. Rider
TTITLE1=Walking By Myself
TTITLE2=Mother Earth
TTITLE3=Boney Maroney
TTITLE4=Busted In Austin
TTITLE5=Messin' With The Kid
TTITLE6=I Can't Make It By Myself
TTITLE7=Johnny B. Goode
TTITLE8=It's All Over Now
TTITLE9=Jumping Jack Flash
EXTD=
EXTT0=
EXTT1=
EXTT2=
EXTT3=
EXTT4=
EXTT5=
EXTT6=
EXTT7=
EXTT8=
EXTT9=
PLAYORDER=
